<mxfile host="65bd71144e">
    <diagram id="Ge8wVkAD70-yf9IyisLo" name="Page-1">
        <mxGraphModel dx="1258" dy="1368" grid="1" gridSize="10" guides="1" tooltips="1" connect="1" arrows="1" fold="1" page="1" pageScale="1" pageWidth="850" pageHeight="1100" background="#FFFFFF" math="0" shadow="0">
            <root>
                <mxCell id="0"/>
                <mxCell id="1" parent="0"/>
                <mxCell id="2" value="Cliente" style="swimlane;fontStyle=0;childLayout=stackLayout;horizontal=1;startSize=26;fillColor=none;horizontalStack=0;resizeParent=1;resizeParentMax=0;resizeLast=0;collapsible=1;marginBottom=0;" parent="1" vertex="1">
                    <mxGeometry x="20" y="170" width="180" height="364" as="geometry"/>
                </mxCell>
                <mxCell id="3" value="+ _id: ObjectId" style="text;strokeColor=none;fillColor=none;align=left;verticalAlign=top;spacingLeft=4;spacingRight=4;overflow=hidden;rotatable=0;points=[[0,0.5],[1,0.5]];portConstraint=eastwest;" parent="2" vertex="1">
                    <mxGeometry y="26" width="180" height="26" as="geometry"/>
                </mxCell>
                <mxCell id="4" value="+ nome: String" style="text;strokeColor=none;fillColor=none;align=left;verticalAlign=top;spacingLeft=4;spacingRight=4;overflow=hidden;rotatable=0;points=[[0,0.5],[1,0.5]];portConstraint=eastwest;" parent="2" vertex="1">
                    <mxGeometry y="52" width="180" height="26" as="geometry"/>
                </mxCell>
                <mxCell id="46" value="+ cpf: String" style="text;strokeColor=none;fillColor=none;align=left;verticalAlign=top;spacingLeft=4;spacingRight=4;overflow=hidden;rotatable=0;points=[[0,0.5],[1,0.5]];portConstraint=eastwest;" parent="2" vertex="1">
                    <mxGeometry y="78" width="180" height="26" as="geometry"/>
                </mxCell>
                <mxCell id="47" value="+data_nascimento: Datetime?" style="text;strokeColor=none;fillColor=none;align=left;verticalAlign=top;spacingLeft=4;spacingRight=4;overflow=hidden;rotatable=0;points=[[0,0.5],[1,0.5]];portConstraint=eastwest;" parent="2" vertex="1">
                    <mxGeometry y="104" width="180" height="26" as="geometry"/>
                </mxCell>
                <mxCell id="48" value="+email: String" style="text;strokeColor=none;fillColor=none;align=left;verticalAlign=top;spacingLeft=4;spacingRight=4;overflow=hidden;rotatable=0;points=[[0,0.5],[1,0.5]];portConstraint=eastwest;" parent="2" vertex="1">
                    <mxGeometry y="130" width="180" height="26" as="geometry"/>
                </mxCell>
                <mxCell id="49" value="+logradouro: String" style="text;strokeColor=none;fillColor=none;align=left;verticalAlign=top;spacingLeft=4;spacingRight=4;overflow=hidden;rotatable=0;points=[[0,0.5],[1,0.5]];portConstraint=eastwest;" parent="2" vertex="1">
                    <mxGeometry y="156" width="180" height="26" as="geometry"/>
                </mxCell>
                <mxCell id="50" value="+num_casa: String" style="text;strokeColor=none;fillColor=none;align=left;verticalAlign=top;spacingLeft=4;spacingRight=4;overflow=hidden;rotatable=0;points=[[0,0.5],[1,0.5]];portConstraint=eastwest;" parent="2" vertex="1">
                    <mxGeometry y="182" width="180" height="26" as="geometry"/>
                </mxCell>
                <mxCell id="51" value="+complemento: String?" style="text;strokeColor=none;fillColor=none;align=left;verticalAlign=top;spacingLeft=4;spacingRight=4;overflow=hidden;rotatable=0;points=[[0,0.5],[1,0.5]];portConstraint=eastwest;" parent="2" vertex="1">
                    <mxGeometry y="208" width="180" height="26" as="geometry"/>
                </mxCell>
                <mxCell id="52" value="+bairro: String?" style="text;strokeColor=none;fillColor=none;align=left;verticalAlign=top;spacingLeft=4;spacingRight=4;overflow=hidden;rotatable=0;points=[[0,0.5],[1,0.5]];portConstraint=eastwest;" parent="2" vertex="1">
                    <mxGeometry y="234" width="180" height="26" as="geometry"/>
                </mxCell>
                <mxCell id="53" value="+municipio: String?" style="text;strokeColor=none;fillColor=none;align=left;verticalAlign=top;spacingLeft=4;spacingRight=4;overflow=hidden;rotatable=0;points=[[0,0.5],[1,0.5]];portConstraint=eastwest;" parent="2" vertex="1">
                    <mxGeometry y="260" width="180" height="26" as="geometry"/>
                </mxCell>
                <mxCell id="54" value="+uf: String?" style="text;strokeColor=none;fillColor=none;align=left;verticalAlign=top;spacingLeft=4;spacingRight=4;overflow=hidden;rotatable=0;points=[[0,0.5],[1,0.5]];portConstraint=eastwest;" parent="2" vertex="1">
                    <mxGeometry y="286" width="180" height="26" as="geometry"/>
                </mxCell>
                <mxCell id="55" value="+cep: String?" style="text;strokeColor=none;fillColor=none;align=left;verticalAlign=top;spacingLeft=4;spacingRight=4;overflow=hidden;rotatable=0;points=[[0,0.5],[1,0.5]];portConstraint=eastwest;" parent="2" vertex="1">
                    <mxGeometry y="312" width="180" height="26" as="geometry"/>
                </mxCell>
                <mxCell id="5" value="+celular: String" style="text;strokeColor=none;fillColor=none;align=left;verticalAlign=top;spacingLeft=4;spacingRight=4;overflow=hidden;rotatable=0;points=[[0,0.5],[1,0.5]];portConstraint=eastwest;" parent="2" vertex="1">
                    <mxGeometry y="338" width="180" height="26" as="geometry"/>
                </mxCell>
                <mxCell id="7" value="Categoria" style="swimlane;fontStyle=0;childLayout=stackLayout;horizontal=1;startSize=26;fillColor=none;horizontalStack=0;resizeParent=1;resizeParentMax=0;resizeLast=0;collapsible=1;marginBottom=0;" parent="1" vertex="1">
                    <mxGeometry x="380" y="30" width="140" height="78" as="geometry"/>
                </mxCell>
                <mxCell id="8" value="+_id: ObjectId" style="text;strokeColor=none;fillColor=none;align=left;verticalAlign=top;spacingLeft=4;spacingRight=4;overflow=hidden;rotatable=0;points=[[0,0.5],[1,0.5]];portConstraint=eastwest;" parent="7" vertex="1">
                    <mxGeometry y="26" width="140" height="26" as="geometry"/>
                </mxCell>
                <mxCell id="9" value="+descricao: String" style="text;strokeColor=none;fillColor=none;align=left;verticalAlign=top;spacingLeft=4;spacingRight=4;overflow=hidden;rotatable=0;points=[[0,0.5],[1,0.5]];portConstraint=eastwest;" parent="7" vertex="1">
                    <mxGeometry y="52" width="140" height="26" as="geometry"/>
                </mxCell>
                <mxCell id="15" value="Poduto" style="swimlane;fontStyle=0;childLayout=stackLayout;horizontal=1;startSize=26;fillColor=none;horizontalStack=0;resizeParent=1;resizeParentMax=0;resizeLast=0;collapsible=1;marginBottom=0;" parent="1" vertex="1">
                    <mxGeometry x="380" y="220" width="140" height="234" as="geometry"/>
                </mxCell>
                <mxCell id="16" value="+_id:ObjectId" style="text;strokeColor=none;fillColor=none;align=left;verticalAlign=top;spacingLeft=4;spacingRight=4;overflow=hidden;rotatable=0;points=[[0,0.5],[1,0.5]];portConstraint=eastwest;" parent="15" vertex="1">
                    <mxGeometry y="26" width="140" height="26" as="geometry"/>
                </mxCell>
                <mxCell id="17" value="+ nome:String" style="text;strokeColor=none;fillColor=none;align=left;verticalAlign=top;spacingLeft=4;spacingRight=4;overflow=hidden;rotatable=0;points=[[0,0.5],[1,0.5]];portConstraint=eastwest;" parent="15" vertex="1">
                    <mxGeometry y="52" width="140" height="26" as="geometry"/>
                </mxCell>
                <mxCell id="57" value="+ especificacao: String?" style="text;strokeColor=none;fillColor=none;align=left;verticalAlign=top;spacingLeft=4;spacingRight=4;overflow=hidden;rotatable=0;points=[[0,0.5],[1,0.5]];portConstraint=eastwest;" parent="15" vertex="1">
                    <mxGeometry y="78" width="140" height="26" as="geometry"/>
                </mxCell>
                <mxCell id="58" value="+ marca: String" style="text;strokeColor=none;fillColor=none;align=left;verticalAlign=top;spacingLeft=4;spacingRight=4;overflow=hidden;rotatable=0;points=[[0,0.5],[1,0.5]];portConstraint=eastwest;" parent="15" vertex="1">
                    <mxGeometry y="104" width="140" height="26" as="geometry"/>
                </mxCell>
                <mxCell id="59" value="+unidade_medida: String" style="text;strokeColor=none;fillColor=none;align=left;verticalAlign=top;spacingLeft=4;spacingRight=4;overflow=hidden;rotatable=0;points=[[0,0.5],[1,0.5]];portConstraint=eastwest;" parent="15" vertex="1">
                    <mxGeometry y="130" width="140" height="26" as="geometry"/>
                </mxCell>
                <mxCell id="60" value="+preco_unitario: Number" style="text;strokeColor=none;fillColor=none;align=left;verticalAlign=top;spacingLeft=4;spacingRight=4;overflow=hidden;rotatable=0;points=[[0,0.5],[1,0.5]];portConstraint=eastwest;" parent="15" vertex="1">
                    <mxGeometry y="156" width="140" height="26" as="geometry"/>
                </mxCell>
                <mxCell id="63" value="+qtd_estoque: Number" style="text;strokeColor=none;fillColor=none;align=left;verticalAlign=top;spacingLeft=4;spacingRight=4;overflow=hidden;rotatable=0;points=[[0,0.5],[1,0.5]];portConstraint=eastwest;" parent="15" vertex="1">
                    <mxGeometry y="182" width="140" height="26" as="geometry"/>
                </mxCell>
                <mxCell id="18" value="+categoria: Categoria" style="text;strokeColor=none;fillColor=none;align=left;verticalAlign=top;spacingLeft=4;spacingRight=4;overflow=hidden;rotatable=0;points=[[0,0.5],[1,0.5]];portConstraint=eastwest;" parent="15" vertex="1">
                    <mxGeometry y="208" width="140" height="26" as="geometry"/>
                </mxCell>
                <mxCell id="19" value="Fornecedor" style="swimlane;fontStyle=0;childLayout=stackLayout;horizontal=1;startSize=26;fillColor=none;horizontalStack=0;resizeParent=1;resizeParentMax=0;resizeLast=0;collapsible=1;marginBottom=0;" parent="1" vertex="1">
                    <mxGeometry x="700" y="220" width="140" height="338" as="geometry"/>
                </mxCell>
                <mxCell id="20" value="+_id: ObjectId" style="text;strokeColor=none;fillColor=none;align=left;verticalAlign=top;spacingLeft=4;spacingRight=4;overflow=hidden;rotatable=0;points=[[0,0.5],[1,0.5]];portConstraint=eastwest;" parent="19" vertex="1">
                    <mxGeometry y="26" width="140" height="26" as="geometry"/>
                </mxCell>
                <mxCell id="21" value="+ razao: String" style="text;strokeColor=none;fillColor=none;align=left;verticalAlign=top;spacingLeft=4;spacingRight=4;overflow=hidden;rotatable=0;points=[[0,0.5],[1,0.5]];portConstraint=eastwest;" parent="19" vertex="1">
                    <mxGeometry y="52" width="140" height="26" as="geometry"/>
                </mxCell>
                <mxCell id="65" value="+ fantasia: String?" style="text;strokeColor=none;fillColor=none;align=left;verticalAlign=top;spacingLeft=4;spacingRight=4;overflow=hidden;rotatable=0;points=[[0,0.5],[1,0.5]];portConstraint=eastwest;" parent="19" vertex="1">
                    <mxGeometry y="78" width="140" height="26" as="geometry"/>
                </mxCell>
                <mxCell id="22" value="+ cnpj: String?" style="text;strokeColor=none;fillColor=none;align=left;verticalAlign=top;spacingLeft=4;spacingRight=4;overflow=hidden;rotatable=0;points=[[0,0.5],[1,0.5]];portConstraint=eastwest;" parent="19" vertex="1">
                    <mxGeometry y="104" width="140" height="26" as="geometry"/>
                </mxCell>
                <mxCell id="74" value="+num_casa: String" style="text;strokeColor=none;fillColor=none;align=left;verticalAlign=top;spacingLeft=4;spacingRight=4;overflow=hidden;rotatable=0;points=[[0,0.5],[1,0.5]];portConstraint=eastwest;" parent="19" vertex="1">
                    <mxGeometry y="130" width="140" height="26" as="geometry"/>
                </mxCell>
                <mxCell id="73" value="+logradouro: String" style="text;strokeColor=none;fillColor=none;align=left;verticalAlign=top;spacingLeft=4;spacingRight=4;overflow=hidden;rotatable=0;points=[[0,0.5],[1,0.5]];portConstraint=eastwest;" parent="19" vertex="1">
                    <mxGeometry y="156" width="140" height="26" as="geometry"/>
                </mxCell>
                <mxCell id="75" value="+complemento: String?" style="text;strokeColor=none;fillColor=none;align=left;verticalAlign=top;spacingLeft=4;spacingRight=4;overflow=hidden;rotatable=0;points=[[0,0.5],[1,0.5]];portConstraint=eastwest;" parent="19" vertex="1">
                    <mxGeometry y="182" width="140" height="26" as="geometry"/>
                </mxCell>
                <mxCell id="76" value="+bairro: String?" style="text;strokeColor=none;fillColor=none;align=left;verticalAlign=top;spacingLeft=4;spacingRight=4;overflow=hidden;rotatable=0;points=[[0,0.5],[1,0.5]];portConstraint=eastwest;" parent="19" vertex="1">
                    <mxGeometry y="208" width="140" height="26" as="geometry"/>
                </mxCell>
                <mxCell id="78" value="+uf: String?" style="text;strokeColor=none;fillColor=none;align=left;verticalAlign=top;spacingLeft=4;spacingRight=4;overflow=hidden;rotatable=0;points=[[0,0.5],[1,0.5]];portConstraint=eastwest;" parent="19" vertex="1">
                    <mxGeometry y="234" width="140" height="26" as="geometry"/>
                </mxCell>
                <mxCell id="77" value="+municipio: String?" style="text;strokeColor=none;fillColor=none;align=left;verticalAlign=top;spacingLeft=4;spacingRight=4;overflow=hidden;rotatable=0;points=[[0,0.5],[1,0.5]];portConstraint=eastwest;" parent="19" vertex="1">
                    <mxGeometry y="260" width="140" height="26" as="geometry"/>
                </mxCell>
                <mxCell id="79" value="+cep: String?" style="text;strokeColor=none;fillColor=none;align=left;verticalAlign=top;spacingLeft=4;spacingRight=4;overflow=hidden;rotatable=0;points=[[0,0.5],[1,0.5]];portConstraint=eastwest;" parent="19" vertex="1">
                    <mxGeometry y="286" width="140" height="26" as="geometry"/>
                </mxCell>
                <mxCell id="80" value="+celular: String" style="text;strokeColor=none;fillColor=none;align=left;verticalAlign=top;spacingLeft=4;spacingRight=4;overflow=hidden;rotatable=0;points=[[0,0.5],[1,0.5]];portConstraint=eastwest;" parent="19" vertex="1">
                    <mxGeometry y="312" width="140" height="26" as="geometry"/>
                </mxCell>
                <mxCell id="23" value="Venda" style="swimlane;fontStyle=0;childLayout=stackLayout;horizontal=1;startSize=26;fillColor=none;horizontalStack=0;resizeParent=1;resizeParentMax=0;resizeLast=0;collapsible=1;marginBottom=0;" parent="1" vertex="1">
                    <mxGeometry x="380" y="550" width="140" height="156" as="geometry"/>
                </mxCell>
                <mxCell id="24" value="+ _id: ObjectId" style="text;strokeColor=none;fillColor=none;align=left;verticalAlign=top;spacingLeft=4;spacingRight=4;overflow=hidden;rotatable=0;points=[[0,0.5],[1,0.5]];portConstraint=eastwest;" parent="23" vertex="1">
                    <mxGeometry y="26" width="140" height="26" as="geometry"/>
                </mxCell>
                <mxCell id="25" value="+num_venda:Number" style="text;strokeColor=none;fillColor=none;align=left;verticalAlign=top;spacingLeft=4;spacingRight=4;overflow=hidden;rotatable=0;points=[[0,0.5],[1,0.5]];portConstraint=eastwest;" parent="23" vertex="1">
                    <mxGeometry y="52" width="140" height="26" as="geometry"/>
                </mxCell>
                <mxCell id="61" value="+ data_hora: DateTime" style="text;strokeColor=none;fillColor=none;align=left;verticalAlign=top;spacingLeft=4;spacingRight=4;overflow=hidden;rotatable=0;points=[[0,0.5],[1,0.5]];portConstraint=eastwest;" parent="23" vertex="1">
                    <mxGeometry y="78" width="140" height="26" as="geometry"/>
                </mxCell>
                <mxCell id="62" value="+itens: [Produto]" style="text;strokeColor=none;fillColor=none;align=left;verticalAlign=top;spacingLeft=4;spacingRight=4;overflow=hidden;rotatable=0;points=[[0,0.5],[1,0.5]];portConstraint=eastwest;" parent="23" vertex="1">
                    <mxGeometry y="104" width="140" height="26" as="geometry"/>
                </mxCell>
                <mxCell id="26" value="+cliente: Cliente" style="text;strokeColor=none;fillColor=none;align=left;verticalAlign=top;spacingLeft=4;spacingRight=4;overflow=hidden;rotatable=0;points=[[0,0.5],[1,0.5]];portConstraint=eastwest;" parent="23" vertex="1">
                    <mxGeometry y="130" width="140" height="26" as="geometry"/>
                </mxCell>
                <mxCell id="30" value="" style="endArrow=diamondThin;endFill=1;endSize=24;html=1;entryX=0;entryY=0;entryDx=0;entryDy=0;exitX=1.003;exitY=0.112;exitDx=0;exitDy=0;exitPerimeter=0;" parent="1" source="2" target="23" edge="1">
                    <mxGeometry width="160" relative="1" as="geometry">
                        <mxPoint x="270" y="285" as="sourcePoint"/>
                        <mxPoint x="430" y="285" as="targetPoint"/>
                        <Array as="points">
                            <mxPoint x="320" y="240"/>
                        </Array>
                    </mxGeometry>
                </mxCell>
                <mxCell id="31" value="" style="endArrow=diamondThin;endFill=1;endSize=24;html=1;exitX=1;exitY=0;exitDx=0;exitDy=0;entryX=0.25;entryY=0;entryDx=0;entryDy=0;" parent="1" source="15" target="81" edge="1">
                    <mxGeometry width="160" relative="1" as="geometry">
                        <mxPoint x="490" y="360" as="sourcePoint"/>
                        <mxPoint x="650" y="360" as="targetPoint"/>
                        <Array as="points">
                            <mxPoint x="570" y="310"/>
                        </Array>
                    </mxGeometry>
                </mxCell>
                <mxCell id="32" value="" style="endArrow=diamondThin;endFill=1;endSize=24;html=1;exitX=0;exitY=0;exitDx=0;exitDy=0;entryX=0.108;entryY=-0.035;entryDx=0;entryDy=0;entryPerimeter=0;" parent="1" source="7" target="15" edge="1">
                    <mxGeometry width="160" relative="1" as="geometry">
                        <mxPoint x="330" y="150" as="sourcePoint"/>
                        <mxPoint x="330" y="150" as="targetPoint"/>
                        <Array as="points">
                            <mxPoint x="310" y="60"/>
                            <mxPoint x="310" y="120"/>
                            <mxPoint x="380" y="120"/>
                        </Array>
                    </mxGeometry>
                </mxCell>
                <mxCell id="33" value="" style="endArrow=diamondThin;endFill=1;endSize=24;html=1;exitX=0.5;exitY=0;exitDx=0;exitDy=0;entryX=0.5;entryY=0;entryDx=0;entryDy=0;" parent="1" source="19" target="15" edge="1">
                    <mxGeometry width="160" relative="1" as="geometry">
                        <mxPoint x="580" y="170" as="sourcePoint"/>
                        <mxPoint x="740" y="170" as="targetPoint"/>
                        <Array as="points">
                            <mxPoint x="680" y="160"/>
                            <mxPoint x="580" y="160"/>
                        </Array>
                    </mxGeometry>
                </mxCell>
                <mxCell id="34" value="1" style="text;html=1;align=center;verticalAlign=middle;resizable=0;points=[];autosize=1;strokeColor=none;fillColor=none;" parent="1" vertex="1">
                    <mxGeometry x="210" y="185" width="30" height="30" as="geometry"/>
                </mxCell>
                <mxCell id="35" value="0...*" style="text;html=1;align=center;verticalAlign=middle;resizable=0;points=[];autosize=1;strokeColor=none;fillColor=none;" parent="1" vertex="1">
                    <mxGeometry x="320" y="535" width="40" height="30" as="geometry"/>
                </mxCell>
                <mxCell id="36" value="1" style="text;html=1;align=center;verticalAlign=middle;resizable=0;points=[];autosize=1;strokeColor=none;fillColor=none;" parent="1" vertex="1">
                    <mxGeometry x="345" y="25" width="30" height="30" as="geometry"/>
                </mxCell>
                <mxCell id="37" value="0...*" style="text;html=1;align=center;verticalAlign=middle;resizable=0;points=[];autosize=1;strokeColor=none;fillColor=none;" parent="1" vertex="1">
                    <mxGeometry x="390" y="185" width="40" height="30" as="geometry"/>
                </mxCell>
                <mxCell id="38" value="1...*" style="text;html=1;align=center;verticalAlign=middle;resizable=0;points=[];autosize=1;strokeColor=none;fillColor=none;" parent="1" vertex="1">
                    <mxGeometry x="520" y="215" width="40" height="30" as="geometry"/>
                </mxCell>
                <mxCell id="39" value="0...*" style="text;html=1;align=center;verticalAlign=middle;resizable=0;points=[];autosize=1;strokeColor=none;fillColor=none;" parent="1" vertex="1">
                    <mxGeometry x="540" y="355" width="40" height="30" as="geometry"/>
                </mxCell>
                <mxCell id="40" value="0...*" style="text;html=1;align=center;verticalAlign=middle;resizable=0;points=[];autosize=1;strokeColor=none;fillColor=none;" parent="1" vertex="1">
                    <mxGeometry x="460" y="170" width="40" height="30" as="geometry"/>
                </mxCell>
                <mxCell id="43" value="1" style="text;html=1;align=center;verticalAlign=middle;resizable=0;points=[];autosize=1;strokeColor=none;fillColor=none;" parent="1" vertex="1">
                    <mxGeometry x="770" y="185" width="30" height="30" as="geometry"/>
                </mxCell>
                <mxCell id="81" value="ItenVenda" style="swimlane;fontStyle=0;childLayout=stackLayout;horizontal=1;startSize=26;fillColor=none;horizontalStack=0;resizeParent=1;resizeParentMax=0;resizeLast=0;collapsible=1;marginBottom=0;" vertex="1" parent="1">
                    <mxGeometry x="550" y="558" width="140" height="104" as="geometry"/>
                </mxCell>
                <mxCell id="83" value="+num_item:Number" style="text;strokeColor=none;fillColor=none;align=left;verticalAlign=top;spacingLeft=4;spacingRight=4;overflow=hidden;rotatable=0;points=[[0,0.5],[1,0.5]];portConstraint=eastwest;" vertex="1" parent="81">
                    <mxGeometry y="26" width="140" height="26" as="geometry"/>
                </mxCell>
                <mxCell id="84" value="+quantidade: Number" style="text;strokeColor=none;fillColor=none;align=left;verticalAlign=top;spacingLeft=4;spacingRight=4;overflow=hidden;rotatable=0;points=[[0,0.5],[1,0.5]];portConstraint=eastwest;" vertex="1" parent="81">
                    <mxGeometry y="52" width="140" height="26" as="geometry"/>
                </mxCell>
                <mxCell id="85" value="+produto: Produto " style="text;strokeColor=none;fillColor=none;align=left;verticalAlign=top;spacingLeft=4;spacingRight=4;overflow=hidden;rotatable=0;points=[[0,0.5],[1,0.5]];portConstraint=eastwest;" vertex="1" parent="81">
                    <mxGeometry y="78" width="140" height="26" as="geometry"/>
                </mxCell>
                <mxCell id="88" value="0...*" style="text;html=1;align=center;verticalAlign=middle;resizable=0;points=[];autosize=1;strokeColor=none;fillColor=none;" vertex="1" parent="1">
                    <mxGeometry x="580" y="505" width="40" height="30" as="geometry"/>
                </mxCell>
                <mxCell id="89" value="" style="endArrow=diamondThin;endFill=1;endSize=24;html=1;exitX=0.364;exitY=-0.019;exitDx=0;exitDy=0;exitPerimeter=0;entryX=0;entryY=0;entryDx=0;entryDy=0;" edge="1" parent="1" source="23" target="81">
                    <mxGeometry width="160" relative="1" as="geometry">
                        <mxPoint x="410" y="519.5" as="sourcePoint"/>
                        <mxPoint x="570" y="519.5" as="targetPoint"/>
                        <Array as="points">
                            <mxPoint x="440" y="490"/>
                            <mxPoint x="490" y="490"/>
                            <mxPoint x="530" y="490"/>
                        </Array>
                    </mxGeometry>
                </mxCell>
                <mxCell id="93" value="" style="shape=stencil(lVnbchw5CP2aeaWQ0PU5l/9IVZz11Dp2ynH28veLakrjBnWf3rzNBVoCDnCgL/Lh5+OXHw+XyD/fXl/+fPj7+vXt8SIfLzFenx8fXq9v+ukiny7y4dvL68Mfry+/nr/evv/4MiTHp+8vf40n/HPTS5lyHVqR/739wvOHzzf5p+vzVl6oJiMfKAuQD1SykY+U+rG8dArFyAvlBOQLBXufNC+4Lx8ps5HXB+Rj+dioNiNfqQD/xExs7e0kEcir++zzQ5hP2FUIjZINWIjUwI1CXiKWqAWgIJSCVSjU0JXCDOldoVEHQe7UrQnqhQic1KhEK6+gABeqlO19NCq9HcsX6tZgPTEVJO/uI3zyfIc50fuDCBRKNmKKcobPdzkm6jGQlJWC9Y9mKUqCRsHaq1WgAPlOSax8mU84ApBP4garkEI0WoWsWYNO0CSwLsoynXyUZsXWoZyp4UTuTqFNNx9VChflwhDV6lZ2pStO4B7WOltbSp5+OyymTqFCoGq1rhZJRX8BXlLgJGtDVb+BK6VKbHOzptkhdhUyk9gr1UKCFBTLrsI3aHTWdLMnNIbplruvRy1SZZDP0SdQS1hBu45T0JqDKtg9rneFRhGAT+PaLVqbRhqcUBcbOi4yGtduvdT1EQBLtc42dlfAbUHDVG2K9oQVFrLT8+y++wqFqjO6UARFQJ3osNTrDOV+aVV+5E7osDfo3y16BRTpwOzrjGqgWql/l+QVUEJ0JVXVK1REGKrvoKrQATY0Tj0vCuiENON05zDvftjXiEvoOixlin8JXqEhBd5RKCDWIyWbV8jAhrbUb1UQUPvGlRY0BRRqNdpho032d+TWGr0C4rcaOX+lBjt1v5PBrQKyoc4RZ2sDgkbbcSuiJyOuC1wRedhPUjmpAwuYEMcaN1gU0GilbnIMaJyJrlT83NA7xkaa+fK/k1SJ4lo40BFhqeAnRrBv7mdu+l0F7ULJgaNNvryvoFzYldc6H7HfSdvSq8ukv/sKeWkqeZaefQWZPWfTelGSVl7KgMymsU9QlL849MXp6CPO5PlGgL26yGxqGwqEykAJnk4ryRJgg04MnlkWWPCVigYL74bdmpc4KBWFCjzJ84bsVoAlJexiT1B0FcTwk0drLXBFlHhy4c1IICAOopTKjQQRciYdz5Obg7QIgHzQ0axZG5RgI6N1ZHdoVTgiaMQ41053BSFGA+xSvnW8RJsrHZHdVkPhiLhAiNPrmxG5oz46LdzM4Gh3eN86bYb8AOKcfOlOeA0isydv1xQgysFnZxKYnexZ7lizgAgwRRsxwZmzUICTNRH71eTJGoqXVSzD3sl+oTHWaAiivniNNR1KGo/osQZEee+72jgRxDf5NeBYY8I1nWPbocDS2P2QHhLETwh+BxUi3K6M57kTGJKXUOff79tqtKgbe1pXq2GE1aWOOWfYMcfm1kI0wUWsAtKtqgXOtgp4tvZGuHiWTNmWiHDWaRxB5dkN9+WbZwiMF3TNlziGOxXpnjoyrBDaWl1JZ7iN0IIWvb2Ijqfo6fiJvPhtx8l9xI92J/YmTyWwP1Ne7UXxGm/X/H0QHlTetRiG+P/tt3en8vrh/VXht+vT0+1N4/Z//2pRf7q9lpRP/wE=);lineShape=1;" vertex="1" parent="1">
                    <mxGeometry x="290.0086123941137" y="501.7665319119369" width="31.149662809776373" height="270.1792404497728" as="geometry"/>
                </mxCell>
                <mxCell id="94" value="" style="shape=stencil(lVnJUlsxEPwaX6e0L2eS/AdVQHCFAAVk+/u04pLtGT034eZF/TRrq0dvF69e76+fb3fBvb69PH27/bW/ebvfxU+7EPaP97cv+zd82sXPu3h19/Ry+/Xl6cfjzeH78/VYOT59f/o5nvD7gKtS8gAF9+fwg5OQ/v3w5bD8Yf94ttxH8V6t95I7WV8l6ecHyeHyevztq1ofpbD1VUJU65N0Yn8MUptaXyQR+2OTXNT6JqFdXp+SJG2PR0DLZUB2S0DDfMQ2IEvSEfJJKnGhwACnAVUi2aHAh6ABXTrboUnSPiCNtV4GVC9NRylkKcSkmsVpH5AHVke1StM+RD+92gQ0J0kXRkw0Si3Ov4+ASlunlVkIx1JF7plJXYL2IUVxBNC9dN1sKUt3BJAka6dTk8YARbp2OnuppLx7k65LIydpnhCGczbVuc1ftrdAceqGKJ5mDjZV7QQqvpKm7nmW/xHQ+A5hJnYCUPGdFVOdrHIEHNt8GwDa1T5UZI4koqZZCUciC+IIAC56w3yZ5mFEXVcfvCqkIVAJVScOFd+JSShOA+g8rOiXrPPQcZwQH0D3hpiQe0d2AEl0HSW0CGMB0FBLGsBpI/T59xGAfsgEUG3xnQp+GxBt4tBSFBDsEQQAKz6IBMNko2mJD77bFj3jhW3EUq6dH1q+SOkLgEmfbKXM8Jo5sbDriCvhbwD8EtdMiAmAsDjNxAMAbfGB6Rk43RaTPCEmaIs11Y7lAcW5mMSICQo1ugVAfED11cUkz1oubEWJtRx4ZolSZCbFeQieZ5r3aF5MKmyHsLFDI8WHKJW1gRjALcQEAKulNi3+76auW03Nqi9b2Te8ZtWXNgBMuo6WWxPBW84vLJB4U5elvpna+DigLcQEBc8aAtrZ7FBplDCFlWgBjsi+MVYZNi784A1WfkPMNgYoVsRBCyRiUgp2tITaqCRKkCde7wA9w3TlEEB6BygmVhqQWNmIuESPIIi4oFmgccUEmdj0DtCVTOBjbsp6ByhXRn1QkSZxYxpkO3TbQIXP4EMUapOGvidRQiF43dPvTRDRmjRmFMKVYyAwQw1PXHdWxGHQYnMTKqeuoxwLa7ZOj2GRAYK9FhjjKOHW2q1gGgMvAxQr1zFSR3I+1GjPrDG0sx2cJYFxLcCvNowkGxcPDLDeVGSpJHGjp3XixtHNboyqFRs4iVke8qLvT7dyl4is6Dx4fquGQjBSwAc+Z1Wbae8kEaeRJuN0m1S4fZ5kq+4L5W7f7RyXp469eOZqjyPl1eXxgR5Wx7PvdMvayHHr7O2Bo2LSTa46LWen/3Ih42Y9XTLGm+XsAtRZpeAmt24H3sovN5l1uw5sIB2fnafiPVtOejfa4YjL2UVr8qdnqw6wnKSp2BshzgrVihU3tfaF5R96T/Ducnw4vZK42z88HN5onP9vX2Hgp8Prj/j5Lw==);lineShape=1;" vertex="1" parent="1">
                    <mxGeometry x="672.8383197873507" y="497.83333089548046" width="29.301178075983216" height="300.73251604292886" as="geometry"/>
                </mxCell>
            </root>
        </mxGraphModel>
    </diagram>
</mxfile>